<svg xmlns="http://www.w3.org/2000/svg" width="575" height="253" viewBox="0 0 575 253" version="1.1"><path d="M 46.646 4.106 C 41.529 5.309, 37.549 8.260, 36 12.001 C 33.783 17.353, 35.204 27.792, 39.334 36.488 L 42.943 44.087 38.721 40.628 C 31.888 35.028, 24.942 32, 18.933 32 C 14.010 32, 13.377 32.292, 9.479 36.361 C 5.445 40.570, 3.271 46.503, 4.417 50.171 C 4.646 50.902, 5.102 52.729, 5.431 54.232 C 6.375 58.544, 11.951 64.062, 18.491 67.156 C 21.796 68.719, 25.288 69.999, 26.250 69.999 C 29.502 70.001, 28.028 71.740, 24.250 72.360 C 12.296 74.322, 7.822 84.890, 14.568 95.230 C 19.705 103.103, 31.578 105.576, 42.787 101.107 C 45.695 99.948, 48.229 99, 48.418 99 C 48.608 99, 49.247 100.912, 49.839 103.250 C 51.208 108.655, 55.923 116.103, 59.631 118.717 C 67.411 124.201, 71.180 125.418, 80.500 125.460 C 88.153 125.494, 90.323 125.112, 95 122.910 C 98.025 121.485, 101.977 119.071, 103.781 117.545 C 107.425 114.463, 112.355 107.686, 113.414 104.302 C 114.019 102.369, 113.586 101.966, 109.818 100.951 C 100.629 98.477, 89.077 90.464, 84.975 83.719 L 83.236 80.859 81.053 83.926 C 75.930 91.120, 65.031 94.499, 56.303 91.601 C 43.135 87.227, 37.273 72.362, 43.794 59.880 C 47.721 52.362, 54.032 48.507, 62.417 48.503 C 70.157 48.499, 71.393 47.103, 72.992 36.553 C 74.879 24.101, 72.535 12.379, 67.211 7.655 C 62.620 3.580, 54.702 2.214, 46.646 4.106 M 299.500 35.561 C 209.300 42.898, 134.305 48.923, 132.845 48.950 C 130.705 48.990, 129.613 50.024, 127.205 54.291 C 125.563 57.201, 121.428 62.166, 118.016 65.324 L 111.814 71.067 113.548 73.713 L 115.282 76.360 118.391 72.842 C 120.101 70.908, 122.719 67.876, 124.210 66.106 C 126.585 63.283, 127.187 63.030, 129.088 64.047 C 131.059 65.102, 131.210 65.791, 130.744 71.604 C 130.461 75.122, 130.376 78, 130.554 78 C 130.733 78, 132.955 76.202, 135.494 74.005 C 146.353 64.607, 151.296 69.812, 145.143 84.165 C 141.072 93.663, 132.346 100.192, 121.829 101.608 C 118.077 102.113, 117.045 102.683, 116.589 104.503 C 116.276 105.750, 114.517 109.003, 112.680 111.732 L 109.341 116.695 112.687 118.988 C 118.941 123.273, 127.772 133.760, 131.531 141.365 C 136.319 151.053, 137.454 160.775, 134.129 163.622 C 132.320 165.170, 132 166.536, 132 172.699 C 132 180.929, 129.044 190.181, 124.052 197.578 C 121.093 201.962, 121.090 201.984, 123.290 202.443 C 124.505 202.696, 173.200 206.082, 231.500 209.967 C 289.800 213.852, 383.682 220.139, 440.126 223.938 C 509.251 228.590, 543.987 230.567, 546.534 229.992 C 552.216 228.711, 555.167 225.238, 555.167 219.831 C 555.167 216.516, 546.825 191.999, 522.575 124.043 C 504.650 73.810, 489.042 31.187, 487.891 29.324 C 484.710 24.177, 479.496 21.978, 470.790 22.111 C 466.780 22.173, 389.700 28.225, 299.500 35.561 M 147.223 24.557 C 145.957 25.443, 145 27.165, 145 28.557 C 145 31.511, 148.249 35, 151 35 C 153.576 35, 157 31.576, 157 29 C 157 26.521, 153.609 23, 151.223 23 C 150.245 23, 148.445 23.701, 147.223 24.557 M 148.223 25.557 C 145.310 27.597, 145.399 30.560, 148.433 32.548 C 150.325 33.788, 151.325 33.896, 152.933 33.036 C 155.668 31.572, 155.753 26.473, 153.066 25.035 C 150.634 23.734, 150.860 23.710, 148.223 25.557 M 148 28.934 C 148 32.035, 149.345 33.046, 150.417 30.750 C 150.883 29.750, 151.117 29.750, 151.583 30.750 C 152.589 32.905, 153.571 32.116, 153.451 29.250 C 153.360 27.052, 152.801 26.436, 150.668 26.184 C 148.289 25.901, 148 26.199, 148 28.934 M 77.500 42.765 L 74.500 44.450 77 44.821 C 81.833 45.538, 83.604 49.469, 80.648 52.921 C 79.496 54.267, 79.623 54.970, 81.506 57.686 L 83.714 60.872 87.889 54.324 C 92.541 47.027, 92.558 44.857, 87.979 42.489 C 84.284 40.578, 81.251 40.658, 77.500 42.765 M 58.250 51.973 C 53.597 54.085, 52.617 55.385, 56.392 54.438 C 59.167 53.741, 64.465 56.162, 65.379 58.545 C 66.626 61.796, 65.944 65.147, 63.545 67.545 C 60.203 70.888, 55.654 70.809, 52.452 67.354 C 49.651 64.332, 49.438 64.719, 51.364 69.329 C 53.620 74.727, 58.362 78, 63.929 78 C 68.919 78, 74.886 74.987, 75.810 72 C 76.065 71.175, 75.928 70.822, 75.505 71.215 C 74.098 72.525, 71 69.971, 71 67.500 C 71 64.727, 73.992 62.676, 76.586 63.671 C 78.089 64.248, 78.228 63.889, 77.641 60.954 C 76.771 56.607, 72.583 52.257, 68.057 50.999 C 63.392 49.703, 63.210 49.722, 58.250 51.973 M 436.500 53.842 C 434.850 54.850, 432.950 56.342, 432.278 57.157 C 430.780 58.972, 419.677 95.011, 420.395 95.728 C 420.677 96.011, 423.334 95.939, 426.298 95.568 L 431.688 94.895 441.344 77.297 C 446.655 67.618, 451 58.867, 451 57.849 C 451 52.549, 442.470 50.191, 436.500 53.842 M 94.939 55.061 C 92.120 57.880, 92.709 61.500, 95.987 61.500 C 99.164 61.500, 101.850 56.729, 99.957 54.448 C 98.343 52.503, 97.379 52.621, 94.939 55.061 M 194 63.584 C 182.815 65.550, 179.466 66.286, 177.388 67.233 L 175 68.321 175 107.161 L 175 146 186.500 146 L 198 146 198 131.500 L 198 117 204.841 117 C 222.888 117, 233.671 108.332, 234.772 92.938 C 235.472 83.165, 233.682 77.582, 228.051 71.975 C 224.957 68.895, 221.779 66.891, 218.123 65.718 C 212.752 63.994, 198.725 62.753, 194 63.584 M 123.297 71.446 C 118.639 77.481, 113.897 81.191, 113.265 79.294 C 113.051 78.653, 111.566 76.321, 109.964 74.110 L 107.052 70.089 102.667 72.029 C 100.255 73.096, 95.903 74.578, 92.995 75.322 L 87.707 76.675 91.146 79.298 C 97.585 84.209, 105.469 87.148, 112.253 87.167 C 121.562 87.192, 123.433 86.130, 125.955 79.392 C 127.171 76.140, 127.969 72.005, 127.799 69.830 L 127.500 65.999 123.297 71.446 M 199.250 76.662 C 198.337 77.031, 198 80.786, 198 90.583 L 198 104 200.851 104 C 208.965 104, 213 99.433, 213 90.248 C 213 82.883, 211.322 79.032, 207.397 77.392 C 204.011 75.978, 201.504 75.753, 199.250 76.662 M 256.500 81.930 C 244.044 84.943, 236.769 94.274, 235.071 109.416 C 233.232 125.816, 238.672 137.675, 251 144.140 C 255.036 146.257, 256.789 146.499, 268 146.488 C 279.406 146.478, 286.284 145.435, 289.749 143.192 C 290.721 142.562, 290.523 140.954, 288.856 135.942 C 287.678 132.399, 286.649 129.409, 286.571 129.297 C 286.492 129.185, 284.033 129.796, 281.106 130.654 C 277.711 131.649, 273.286 132.072, 268.882 131.823 C 263.151 131.500, 261.574 131.015, 259.592 128.967 C 258.279 127.610, 256.920 125.540, 256.572 124.366 C 255.800 121.763, 255.297 121.898, 276.868 118.913 L 293.237 116.649 292.778 109.074 C 291.933 95.129, 285.501 85.711, 274.612 82.477 C 269.408 80.932, 261.603 80.696, 256.500 81.930 M 309.231 82.050 C 306.333 82.567, 302.396 83.644, 300.481 84.443 L 297 85.898 297 128.949 L 297 172 308 172 L 319 172 319.001 159.250 L 319.002 146.500 327.751 146.478 C 334.750 146.461, 337.300 146.028, 340.500 144.316 C 350.347 139.047, 355.155 130.274, 355.802 116.394 C 356.570 99.908, 352.058 90.615, 340.527 84.939 C 334.680 82.060, 332.832 81.660, 324.216 81.402 C 318.872 81.242, 312.129 81.534, 309.231 82.050 M 379.821 82.395 C 371.699 84.582, 364.506 91.479, 361.520 99.944 C 360.576 102.618, 360 107.792, 360 113.588 C 360 128.950, 364.696 138.161, 375.410 143.814 C 380.147 146.314, 381.366 146.500, 393 146.500 C 402.589 146.500, 406.738 146.069, 410.818 144.647 C 413.840 143.594, 415.953 142.299, 415.713 141.647 C 415.481 141.016, 414.490 138.025, 413.511 135 C 412.532 131.975, 411.658 129.404, 411.569 129.287 C 411.480 129.169, 409.219 129.732, 406.544 130.537 C 403.870 131.342, 398.559 132, 394.741 132 C 388.181 132, 387.614 131.814, 384.400 128.600 C 380.652 124.852, 380.069 122.395, 382.750 121.646 C 383.712 121.377, 392.097 120.152, 401.382 118.924 L 418.265 116.692 417.723 108.792 C 416.776 94.974, 410.377 85.696, 399.568 82.471 C 393.655 80.707, 386.197 80.678, 379.821 82.395 M 452.634 81.966 C 448.361 83.342, 442.681 87.577, 440.770 90.812 C 439.842 92.383, 438.605 95.799, 438.022 98.404 C 435.987 107.480, 439.891 113.990, 450.563 119.317 C 456.797 122.429, 458.236 124.085, 457.822 127.671 C 457.274 132.419, 451.286 133.184, 442.879 129.580 C 441.593 129.029, 440.700 130.281, 438.551 135.649 C 436.043 141.913, 435.968 142.504, 437.532 143.647 C 440.075 145.506, 448.268 147, 455.923 147 C 471.805 147, 481 139.479, 481 126.490 C 481 117.489, 478.016 113.473, 467.376 108.158 C 464.008 106.475, 460.970 104.364, 460.626 103.467 C 458.089 96.856, 462.301 93.545, 469.814 96.247 C 472.351 97.159, 474.541 97.792, 474.680 97.653 C 474.819 97.514, 476.078 94.812, 477.477 91.648 L 480.021 85.897 475.382 83.845 C 470.173 81.540, 457.264 80.474, 452.634 81.966 M 259.117 95.631 C 256.228 97.654, 254 102.808, 254 107.468 C 254 111.510, 253.695 111.440, 264.250 109.834 L 272 108.654 272 105.476 C 272 95.918, 265.643 91.060, 259.117 95.631 M 319.445 95.282 C 319.175 95.987, 319.076 104.875, 319.227 115.032 L 319.500 133.500 322.610 133.803 C 326.902 134.221, 331.624 130.109, 333.088 124.677 C 334.500 119.440, 333.782 103.467, 331.965 99.675 C 329.750 95.055, 320.745 91.895, 319.445 95.282 M 384.117 95.631 C 381.228 97.654, 379 102.808, 379 107.468 C 379 111.515, 378.681 111.442, 389.359 109.817 L 397.218 108.621 396.753 103.778 C 395.954 95.469, 389.911 91.573, 384.117 95.631 M 103.621 121.314 L 100.741 123.618 103.397 126.483 C 110.782 134.452, 113.455 143.322, 112.724 157.429 C 111.907 173.202, 106.387 185.586, 96.704 193.372 C 93.574 195.888, 92.589 196.225, 91.088 195.287 C 89.543 194.322, 88.608 194.831, 84.884 198.666 C 82.473 201.150, 78.273 204.468, 75.551 206.040 L 70.602 208.898 73.551 210.041 C 82.330 213.443, 97.708 212.992, 106.569 209.072 C 111.936 206.698, 119.389 199.898, 122.566 194.478 C 128.709 183.995, 130.725 170.048, 127.598 159.659 C 126.827 157.097, 126.402 155, 126.654 155 C 126.906 155, 128.488 156.463, 130.169 158.250 L 133.226 161.500 132.715 155.330 C 131.810 144.400, 123.497 131.052, 112.243 122.460 C 109.751 120.557, 107.440 119.002, 107.106 119.005 C 106.773 119.008, 105.204 120.047, 103.621 121.314 M 58.803 127.682 C 54.909 131.751, 53 137.087, 53 143.903 C 53 151.202, 51.823 154.520, 47.724 158.769 C 42.123 164.576, 33.798 164.999, 23.954 159.977 C 21.823 158.889, 19.635 158, 19.092 158 C 17.734 158, 19.739 163.626, 22.636 167.943 C 23.907 169.837, 24.804 171.529, 24.630 171.704 C 24.108 172.226, 15.792 169.071, 14.170 167.737 C 12.873 166.668, 12.765 166.908, 13.381 169.500 C 13.773 171.150, 14.987 173.738, 16.077 175.250 L 18.060 178 14.930 178 C 11.388 178, 5.050 172.517, 4.930 169.350 C 4.769 165.128, 3.139 171.581, 3.070 176.712 C 2.931 187.064, 8.444 196.936, 18.610 204.541 C 26.861 210.712, 32.701 212.519, 44 212.398 C 52.079 212.310, 54.799 211.814, 62.187 209.076 C 66.965 207.305, 72.851 204.547, 75.268 202.946 C 79.585 200.087, 88.806 190.917, 92.309 186 L 94.090 183.500 93.533 187.750 C 93.227 190.088, 93.379 192, 93.872 192 C 95.697 192, 102.275 183.598, 105.059 177.710 C 109.003 169.372, 110.297 162.231, 109.799 151.558 C 109.308 141.018, 106.897 134.549, 101.332 128.836 L 97.763 125.172 93.631 126.649 C 87.050 129.001, 77.304 129.373, 71 127.514 C 61.423 124.689, 61.672 124.685, 58.803 127.682 M 33.590 133.496 C 33.267 134.786, 33.187 136.439, 33.414 137.171 C 33.641 137.902, 34.080 139.963, 34.388 141.750 C 34.883 144.612, 34.684 145, 32.725 144.996 C 30.659 144.993, 27.833 143.483, 22.250 139.401 C 20.045 137.789, 20 137.819, 20 140.889 C 20 145.366, 23.415 152.023, 28.016 156.516 C 31.545 159.962, 32.524 160.385, 36.970 160.385 C 40.883 160.385, 42.527 159.857, 44.576 157.942 C 48.659 154.128, 49.694 151.168, 50.260 141.685 C 50.777 133.028, 50.742 132.853, 48.328 131.935 C 44.489 130.475, 44.087 130.759, 44.694 134.500 C 45.411 138.923, 44.379 138.936, 38.666 134.575 L 34.179 131.150 33.590 133.496 M 367.163 157.878 C 366.427 158.345, 365.977 159.800, 366.163 161.113 C 366.596 164.176, 371.730 165.089, 373.662 162.448 C 376.290 158.854, 371.232 155.299, 367.163 157.878 M 395.409 158.378 C 394.138 161.690, 395.412 163.500, 399.014 163.500 C 402.221 163.500, 402.500 163.260, 402.500 160.500 C 402.500 157.845, 402.125 157.464, 399.243 157.186 C 397.047 156.974, 395.798 157.363, 395.409 158.378 M 444.930 158.584 C 442.913 161.014, 445.019 163.500, 449.095 163.500 C 451.551 163.500, 452.567 163.009, 452.819 161.702 C 453.606 157.616, 447.678 155.273, 444.930 158.584 M 474.082 158.401 C 472.069 160.826, 473.692 164, 476.945 164 C 480.519 164, 482.798 161.494, 481.341 159.166 C 479.963 156.964, 475.651 156.510, 474.082 158.401 M 347 160.669 C 339.362 161.863, 340 160.373, 340 177.019 L 340 192 344.500 192 L 349 192 349 186.500 C 349 181.244, 349.115 181, 351.599 181 C 359.042 181, 364.119 175.015, 362.406 168.262 C 360.983 162.654, 354.560 159.488, 347 160.669 M 424.269 160.965 C 421.941 161.331, 419.718 161.949, 419.328 162.339 C 418.938 162.728, 418.423 169.562, 418.184 177.524 L 417.748 192 422.374 192 L 427 192 427 186.500 C 427 181.036, 427.020 181, 430.050 181 C 433.820 181, 438.599 178.618, 439.970 176.055 C 441.267 173.633, 441.305 167.439, 440.038 165.071 C 438.296 161.816, 430.981 159.911, 424.269 160.965 M 349 170.500 C 349 175.973, 349.403 176.550, 352.418 175.393 C 354.327 174.660, 354.604 168.004, 352.800 166.200 C 350.169 163.569, 349 164.891, 349 170.500 M 427.667 165.667 C 427.300 166.033, 427 168.508, 427 171.167 C 427 175.154, 427.315 176, 428.800 176 C 431.502 176, 433 173.980, 433 170.335 C 433 168.131, 432.372 166.734, 431.066 166.035 C 428.788 164.816, 428.544 164.789, 427.667 165.667 M 381.250 168.119 L 378 169.057 378 180.529 L 378 192 382.500 192 L 387 192 387 182.500 C 387 173.628, 387.134 173, 389.025 173 C 390.698 173, 393 169.778, 393 167.435 C 393 166.663, 384.600 167.152, 381.250 168.119 M 460.500 167.877 L 457.500 168.516 457.218 180.258 L 456.937 192 460.968 192 L 465 192 465 182.500 C 465 173.157, 465.039 173, 467.383 173 C 469.530 173, 470.928 170.963, 470.986 167.750 C 471.002 166.876, 464.842 166.950, 460.500 167.877 M 366 180 L 366 192 370 192 L 374 192 374 181.582 C 374 175.852, 374.273 170.452, 374.607 169.582 C 375.106 168.280, 374.397 168, 370.607 168 L 366 168 366 180 M 395 180 L 395 192 399 192 L 403 192 403 180 L 403 168 399 168 L 395 168 395 180 M 444 180 L 444 192 448.500 192 L 453 192 453 180 L 453 168 448.500 168 L 444 168 444 180 M 473 180 L 473 192 477.500 192 L 482 192 482 180 L 482 168 477.500 168 L 473 168 473 180" stroke="none" fill="#c12518" fill-rule="evenodd"/><path d="M 46.500 0.935 C 41.523 2.147, 37.287 4.789, 34.863 8.192 C 31.922 12.323, 31.184 21.730, 33.249 28.772 L 34.715 33.776 29.608 31.398 C 16.519 25.303, 4.073 31.478, 1.576 45.304 C 0.030 53.867, 6.650 65.541, 15.020 69.008 L 18.052 70.264 14.049 73.690 C 0.744 85.079, 12.158 106.578, 31.348 106.274 C 34.732 106.220, 39.469 105.462, 41.876 104.588 C 47.207 102.653, 47 102.655, 47 104.540 C 47 107.171, 50.962 114.004, 55.077 118.467 L 59.011 122.736 55.655 126.400 C 52.632 129.700, 52.030 129.962, 49.584 129.032 C 45.213 127.370, 42.025 127.759, 41.175 130.057 L 40.414 132.113 37.678 129.961 C 36.173 128.777, 34.273 128.065, 33.456 128.379 C 31.291 129.209, 29.774 133.981, 30.479 137.740 C 30.815 139.533, 30.733 140.996, 30.295 140.990 C 29.858 140.985, 27.538 139.421, 25.140 137.514 C 21.635 134.728, 20.408 134.246, 18.890 135.059 C 15.987 136.612, 16.394 143.518, 19.785 150.240 C 22.526 155.674, 22.535 155.745, 20.315 154.734 C 15.786 152.670, 14.010 156.718, 16.556 163.301 C 17.143 164.816, 16.864 165.004, 14.802 164.487 C 11.513 163.661, 9.565 166.074, 10.350 170.002 C 11.161 174.054, 10.380 173.774, 8.250 169.250 C 6.160 164.811, 3.204 164.284, 1.232 168 C -1.046 172.292, 0.136 185.480, 3.364 191.786 C 13.233 211.065, 35.442 220.140, 57.500 213.907 C 68.637 210.759, 69 210.695, 69 211.858 C 69 213.790, 62.675 216.368, 56.218 217.068 C 48.998 217.850, 46 219.936, 46 224.176 C 46 228.912, 49.451 229.750, 58.230 227.148 C 66.652 224.652, 69.628 224.524, 76.500 226.359 C 83.696 228.282, 89.607 231.552, 94.996 236.593 C 97.587 239.017, 100.685 241, 101.881 241 C 104.121 241, 108.671 237.384, 114.921 230.637 C 116.890 228.512, 120.188 224.986, 122.252 222.803 C 124.315 220.619, 126.278 217.742, 126.612 216.409 C 127.384 213.334, 124.975 209.555, 120.898 207.447 C 119.202 206.570, 117.968 205.741, 118.157 205.604 C 118.428 205.407, 152.285 207.703, 152.577 207.938 C 152.619 207.972, 152.204 210.195, 151.654 212.877 C 150.419 218.908, 152.004 223.434, 156.091 225.547 C 159.971 227.553, 164.266 227.473, 258.500 223.628 C 317.585 221.217, 343.574 220.511, 351.500 221.101 C 357.550 221.551, 403.302 224.664, 453.171 228.019 C 552.323 234.690, 549.704 234.669, 555.148 228.841 C 558.581 225.166, 559.521 220.649, 558.016 215.058 C 557.385 212.715, 557.011 210.710, 557.184 210.602 C 557.358 210.493, 558.739 209.873, 560.252 209.223 C 564.237 207.511, 566.992 202.407, 566.996 196.725 C 567.001 190.351, 516.207 46.355, 512.065 41 C 508.606 36.528, 503.632 34.004, 498.276 34.002 C 494.514 34, 493.871 33.644, 492.409 30.750 C 488.417 22.852, 482.107 19, 473.161 19 C 468.101 19, 154.947 43.796, 137.230 45.599 L 130.959 46.237 131.843 43.869 C 133.602 39.156, 134.137 31.945, 132.986 28.458 C 131.743 24.690, 129.495 23, 125.725 23 C 121.342 23, 111.182 29.019, 103.575 36.123 L 96.075 43.128 91.476 40.433 C 88.030 38.413, 85.577 37.750, 81.689 37.785 L 76.500 37.831 76.439 27.666 C 76.372 16.334, 75.236 12.616, 70.031 6.688 C 65.186 1.170, 55.382 -1.227, 46.500 0.935 M 46.646 4.106 C 41.529 5.309, 37.549 8.260, 36 12.001 C 33.783 17.353, 35.204 27.792, 39.334 36.488 L 42.943 44.087 38.721 40.628 C 31.888 35.028, 24.942 32, 18.933 32 C 14.010 32, 13.377 32.292, 9.479 36.361 C 5.445 40.570, 3.271 46.503, 4.417 50.171 C 4.646 50.902, 5.102 52.729, 5.431 54.232 C 6.375 58.544, 11.951 64.062, 18.491 67.156 C 21.796 68.719, 25.288 69.999, 26.250 69.999 C 29.502 70.001, 28.028 71.740, 24.250 72.360 C 12.296 74.322, 7.822 84.890, 14.568 95.230 C 19.705 103.103, 31.578 105.576, 42.787 101.107 C 45.695 99.948, 48.229 99, 48.418 99 C 48.608 99, 49.247 100.912, 49.839 103.250 C 51.208 108.655, 55.923 116.103, 59.631 118.717 C 67.411 124.201, 71.180 125.418, 80.500 125.460 C 88.153 125.494, 90.323 125.112, 95 122.910 C 98.025 121.485, 101.977 119.071, 103.781 117.545 C 107.425 114.463, 112.355 107.686, 113.414 104.302 C 114.019 102.369, 113.586 101.966, 109.818 100.951 C 100.629 98.477, 89.077 90.464, 84.975 83.719 L 83.236 80.859 81.053 83.926 C 75.930 91.120, 65.031 94.499, 56.303 91.601 C 43.135 87.227, 37.273 72.362, 43.794 59.880 C 47.721 52.362, 54.032 48.507, 62.417 48.503 C 70.157 48.499, 71.393 47.103, 72.992 36.553 C 74.879 24.101, 72.535 12.379, 67.211 7.655 C 62.620 3.580, 54.702 2.214, 46.646 4.106 M 299.500 35.561 C 209.300 42.898, 134.305 48.923, 132.845 48.950 C 130.705 48.990, 129.613 50.024, 127.205 54.291 C 125.563 57.201, 121.428 62.166, 118.016 65.324 L 111.814 71.067 113.548 73.713 L 115.282 76.360 118.391 72.842 C 120.101 70.908, 122.719 67.876, 124.210 66.106 C 126.585 63.283, 127.187 63.030, 129.088 64.047 C 131.059 65.102, 131.210 65.791, 130.744 71.604 C 130.461 75.122, 130.376 78, 130.554 78 C 130.733 78, 132.955 76.202, 135.494 74.005 C 146.353 64.607, 151.296 69.812, 145.143 84.165 C 141.072 93.663, 132.346 100.192, 121.829 101.608 C 118.077 102.113, 117.045 102.683, 116.589 104.503 C 116.276 105.750, 114.517 109.003, 112.680 111.732 L 109.341 116.695 112.687 118.988 C 118.941 123.273, 127.772 133.760, 131.531 141.365 C 136.319 151.053, 137.454 160.775, 134.129 163.622 C 132.320 165.170, 132 166.536, 132 172.699 C 132 180.929, 129.044 190.181, 124.052 197.578 C 121.093 201.962, 121.090 201.984, 123.290 202.443 C 124.505 202.696, 173.200 206.082, 231.500 209.967 C 289.800 213.852, 383.682 220.139, 440.126 223.938 C 509.251 228.590, 543.987 230.567, 546.534 229.992 C 552.216 228.711, 555.167 225.238, 555.167 219.831 C 555.167 216.516, 546.825 191.999, 522.575 124.043 C 504.650 73.810, 489.042 31.187, 487.891 29.324 C 484.710 24.177, 479.496 21.978, 470.790 22.111 C 466.780 22.173, 389.700 28.225, 299.500 35.561 M 77.500 42.765 L 74.500 44.450 77 44.821 C 81.833 45.538, 83.604 49.469, 80.648 52.921 C 79.496 54.267, 79.623 54.970, 81.506 57.686 L 83.714 60.872 87.889 54.324 C 92.541 47.027, 92.558 44.857, 87.979 42.489 C 84.284 40.578, 81.251 40.658, 77.500 42.765 M 58.250 51.973 C 53.597 54.085, 52.617 55.385, 56.392 54.438 C 59.167 53.741, 64.465 56.162, 65.379 58.545 C 66.626 61.796, 65.944 65.147, 63.545 67.545 C 60.203 70.888, 55.654 70.809, 52.452 67.354 C 49.651 64.332, 49.438 64.719, 51.364 69.329 C 53.620 74.727, 58.362 78, 63.929 78 C 68.919 78, 74.886 74.987, 75.810 72 C 76.065 71.175, 75.928 70.822, 75.505 71.215 C 74.098 72.525, 71 69.971, 71 67.500 C 71 64.727, 73.992 62.676, 76.586 63.671 C 78.089 64.248, 78.228 63.889, 77.641 60.954 C 76.771 56.607, 72.583 52.257, 68.057 50.999 C 63.392 49.703, 63.210 49.722, 58.250 51.973 M 436.500 53.842 C 434.850 54.850, 432.950 56.342, 432.278 57.157 C 430.780 58.972, 419.677 95.011, 420.395 95.728 C 420.677 96.011, 423.334 95.939, 426.298 95.568 L 431.688 94.895 441.344 77.297 C 446.655 67.618, 451 58.867, 451 57.849 C 451 52.549, 442.470 50.191, 436.500 53.842 M 94.939 55.061 C 92.120 57.880, 92.709 61.500, 95.987 61.500 C 99.164 61.500, 101.850 56.729, 99.957 54.448 C 98.343 52.503, 97.379 52.621, 94.939 55.061 M 194 63.584 C 182.815 65.550, 179.466 66.286, 177.388 67.233 L 175 68.321 175 107.161 L 175 146 186.500 146 L 198 146 198 131.500 L 198 117 204.841 117 C 222.888 117, 233.671 108.332, 234.772 92.938 C 235.472 83.165, 233.682 77.582, 228.051 71.975 C 224.957 68.895, 221.779 66.891, 218.123 65.718 C 212.752 63.994, 198.725 62.753, 194 63.584 M 123.297 71.446 C 118.639 77.481, 113.897 81.191, 113.265 79.294 C 113.051 78.653, 111.566 76.321, 109.964 74.110 L 107.052 70.089 102.667 72.029 C 100.255 73.096, 95.903 74.578, 92.995 75.322 L 87.707 76.675 91.146 79.298 C 97.585 84.209, 105.469 87.148, 112.253 87.167 C 121.562 87.192, 123.433 86.130, 125.955 79.392 C 127.171 76.140, 127.969 72.005, 127.799 69.830 L 127.500 65.999 123.297 71.446 M 199.250 76.662 C 198.337 77.031, 198 80.786, 198 90.583 L 198 104 200.851 104 C 208.965 104, 213 99.433, 213 90.248 C 213 82.883, 211.322 79.032, 207.397 77.392 C 204.011 75.978, 201.504 75.753, 199.250 76.662 M 256.500 81.930 C 244.044 84.943, 236.769 94.274, 235.071 109.416 C 233.232 125.816, 238.672 137.675, 251 144.140 C 255.036 146.257, 256.789 146.499, 268 146.488 C 279.406 146.478, 286.284 145.435, 289.749 143.192 C 290.721 142.562, 290.523 140.954, 288.856 135.942 C 287.678 132.399, 286.649 129.409, 286.571 129.297 C 286.492 129.185, 284.033 129.796, 281.106 130.654 C 277.711 131.649, 273.286 132.072, 268.882 131.823 C 263.151 131.500, 261.574 131.015, 259.592 128.967 C 258.279 127.610, 256.920 125.540, 256.572 124.366 C 255.800 121.763, 255.297 121.898, 276.868 118.913 L 293.237 116.649 292.778 109.074 C 291.933 95.129, 285.501 85.711, 274.612 82.477 C 269.408 80.932, 261.603 80.696, 256.500 81.930 M 309.231 82.050 C 306.333 82.567, 302.396 83.644, 300.481 84.443 L 297 85.898 297 128.949 L 297 172 308 172 L 319 172 319.001 159.250 L 319.002 146.500 327.751 146.478 C 334.750 146.461, 337.300 146.028, 340.500 144.316 C 350.347 139.047, 355.155 130.274, 355.802 116.394 C 356.570 99.908, 352.058 90.615, 340.527 84.939 C 334.680 82.060, 332.832 81.660, 324.216 81.402 C 318.872 81.242, 312.129 81.534, 309.231 82.050 M 379.821 82.395 C 371.699 84.582, 364.506 91.479, 361.520 99.944 C 360.576 102.618, 360 107.792, 360 113.588 C 360 128.950, 364.696 138.161, 375.410 143.814 C 380.147 146.314, 381.366 146.500, 393 146.500 C 402.589 146.500, 406.738 146.069, 410.818 144.647 C 413.840 143.594, 415.953 142.299, 415.713 141.647 C 415.481 141.016, 414.490 138.025, 413.511 135 C 412.532 131.975, 411.658 129.404, 411.569 129.287 C 411.480 129.169, 409.219 129.732, 406.544 130.537 C 403.870 131.342, 398.559 132, 394.741 132 C 388.181 132, 387.614 131.814, 384.400 128.600 C 380.652 124.852, 380.069 122.395, 382.750 121.646 C 383.712 121.377, 392.097 120.152, 401.382 118.924 L 418.265 116.692 417.723 108.792 C 416.776 94.974, 410.377 85.696, 399.568 82.471 C 393.655 80.707, 386.197 80.678, 379.821 82.395 M 452.634 81.966 C 448.361 83.342, 442.681 87.577, 440.770 90.812 C 439.842 92.383, 438.605 95.799, 438.022 98.404 C 435.987 107.480, 439.891 113.990, 450.563 119.317 C 456.797 122.429, 458.236 124.085, 457.822 127.671 C 457.274 132.419, 451.286 133.184, 442.879 129.580 C 441.593 129.029, 440.700 130.281, 438.551 135.649 C 436.043 141.913, 435.968 142.504, 437.532 143.647 C 440.075 145.506, 448.268 147, 455.923 147 C 471.805 147, 481 139.479, 481 126.490 C 481 117.489, 478.016 113.473, 467.376 108.158 C 464.008 106.475, 460.970 104.364, 460.626 103.467 C 458.089 96.856, 462.301 93.545, 469.814 96.247 C 472.351 97.159, 474.541 97.792, 474.680 97.653 C 474.819 97.514, 476.078 94.812, 477.477 91.648 L 480.021 85.897 475.382 83.845 C 470.173 81.540, 457.264 80.474, 452.634 81.966 M 259.117 95.631 C 256.228 97.654, 254 102.808, 254 107.468 C 254 111.510, 253.695 111.440, 264.250 109.834 L 272 108.654 272 105.476 C 272 95.918, 265.643 91.060, 259.117 95.631 M 319.445 95.282 C 319.175 95.987, 319.076 104.875, 319.227 115.032 L 319.500 133.500 322.610 133.803 C 326.902 134.221, 331.624 130.109, 333.088 124.677 C 334.500 119.440, 333.782 103.467, 331.965 99.675 C 329.750 95.055, 320.745 91.895, 319.445 95.282 M 384.117 95.631 C 381.228 97.654, 379 102.808, 379 107.468 C 379 111.515, 378.681 111.442, 389.359 109.817 L 397.218 108.621 396.753 103.778 C 395.954 95.469, 389.911 91.573, 384.117 95.631 M 103.621 121.314 L 100.741 123.618 103.397 126.483 C 110.782 134.452, 113.455 143.322, 112.724 157.429 C 111.907 173.202, 106.387 185.586, 96.704 193.372 C 93.574 195.888, 92.589 196.225, 91.088 195.287 C 89.543 194.322, 88.608 194.831, 84.884 198.666 C 82.473 201.150, 78.273 204.468, 75.551 206.040 L 70.602 208.898 73.551 210.041 C 82.330 213.443, 97.708 212.992, 106.569 209.072 C 111.936 206.698, 119.389 199.898, 122.566 194.478 C 128.709 183.995, 130.725 170.048, 127.598 159.659 C 126.827 157.097, 126.402 155, 126.654 155 C 126.906 155, 128.488 156.463, 130.169 158.250 L 133.226 161.500 132.715 155.330 C 131.810 144.400, 123.497 131.052, 112.243 122.460 C 109.751 120.557, 107.440 119.002, 107.106 119.005 C 106.773 119.008, 105.204 120.047, 103.621 121.314 M 58.803 127.682 C 54.909 131.751, 53 137.087, 53 143.903 C 53 151.202, 51.823 154.520, 47.724 158.769 C 42.123 164.576, 33.798 164.999, 23.954 159.977 C 21.823 158.889, 19.635 158, 19.092 158 C 17.734 158, 19.739 163.626, 22.636 167.943 C 23.907 169.837, 24.804 171.529, 24.630 171.704 C 24.108 172.226, 15.792 169.071, 14.170 167.737 C 12.873 166.668, 12.765 166.908, 13.381 169.500 C 13.773 171.150, 14.987 173.738, 16.077 175.250 L 18.060 178 14.930 178 C 11.388 178, 5.050 172.517, 4.930 169.350 C 4.769 165.128, 3.139 171.581, 3.070 176.712 C 2.931 187.064, 8.444 196.936, 18.610 204.541 C 26.861 210.712, 32.701 212.519, 44 212.398 C 52.079 212.310, 54.799 211.814, 62.187 209.076 C 66.965 207.305, 72.851 204.547, 75.268 202.946 C 79.585 200.087, 88.806 190.917, 92.309 186 L 94.090 183.500 93.533 187.750 C 93.227 190.088, 93.379 192, 93.872 192 C 95.697 192, 102.275 183.598, 105.059 177.710 C 109.003 169.372, 110.297 162.231, 109.799 151.558 C 109.308 141.018, 106.897 134.549, 101.332 128.836 L 97.763 125.172 93.631 126.649 C 87.050 129.001, 77.304 129.373, 71 127.514 C 61.423 124.689, 61.672 124.685, 58.803 127.682 M 33.590 133.496 C 33.267 134.786, 33.187 136.439, 33.414 137.171 C 33.641 137.902, 34.080 139.963, 34.388 141.750 C 34.883 144.612, 34.684 145, 32.725 144.996 C 30.659 144.993, 27.833 143.483, 22.250 139.401 C 20.045 137.789, 20 137.819, 20 140.889 C 20 145.366, 23.415 152.023, 28.016 156.516 C 31.545 159.962, 32.524 160.385, 36.970 160.385 C 40.883 160.385, 42.527 159.857, 44.576 157.942 C 48.659 154.128, 49.694 151.168, 50.260 141.685 C 50.777 133.028, 50.742 132.853, 48.328 131.935 C 44.489 130.475, 44.087 130.759, 44.694 134.500 C 45.411 138.923, 44.379 138.936, 38.666 134.575 L 34.179 131.150 33.590 133.496 M 367.163 157.878 C 366.427 158.345, 365.977 159.800, 366.163 161.113 C 366.596 164.176, 371.730 165.089, 373.662 162.448 C 376.290 158.854, 371.232 155.299, 367.163 157.878 M 395.409 158.378 C 394.138 161.690, 395.412 163.500, 399.014 163.500 C 402.221 163.500, 402.500 163.260, 402.500 160.500 C 402.500 157.845, 402.125 157.464, 399.243 157.186 C 397.047 156.974, 395.798 157.363, 395.409 158.378 M 444.930 158.584 C 442.913 161.014, 445.019 163.500, 449.095 163.500 C 451.551 163.500, 452.567 163.009, 452.819 161.702 C 453.606 157.616, 447.678 155.273, 444.930 158.584 M 474.082 158.401 C 472.069 160.826, 473.692 164, 476.945 164 C 480.519 164, 482.798 161.494, 481.341 159.166 C 479.963 156.964, 475.651 156.510, 474.082 158.401 M 347 160.669 C 339.362 161.863, 340 160.373, 340 177.019 L 340 192 344.500 192 L 349 192 349 186.500 C 349 181.244, 349.115 181, 351.599 181 C 359.042 181, 364.119 175.015, 362.406 168.262 C 360.983 162.654, 354.560 159.488, 347 160.669 M 424.269 160.965 C 421.941 161.331, 419.718 161.949, 419.328 162.339 C 418.938 162.728, 418.423 169.562, 418.184 177.524 L 417.748 192 422.374 192 L 427 192 427 186.500 C 427 181.036, 427.020 181, 430.050 181 C 433.820 181, 438.599 178.618, 439.970 176.055 C 441.267 173.633, 441.305 167.439, 440.038 165.071 C 438.296 161.816, 430.981 159.911, 424.269 160.965 M 349 170.500 C 349 175.973, 349.403 176.550, 352.418 175.393 C 354.327 174.660, 354.604 168.004, 352.800 166.200 C 350.169 163.569, 349 164.891, 349 170.500 M 427.667 165.667 C 427.300 166.033, 427 168.508, 427 171.167 C 427 175.154, 427.315 176, 428.800 176 C 431.502 176, 433 173.980, 433 170.335 C 433 168.131, 432.372 166.734, 431.066 166.035 C 428.788 164.816, 428.544 164.789, 427.667 165.667 M 381.250 168.119 L 378 169.057 378 180.529 L 378 192 382.500 192 L 387 192 387 182.500 C 387 173.628, 387.134 173, 389.025 173 C 390.698 173, 393 169.778, 393 167.435 C 393 166.663, 384.600 167.152, 381.250 168.119 M 460.500 167.877 L 457.500 168.516 457.218 180.258 L 456.937 192 460.968 192 L 465 192 465 182.500 C 465 173.157, 465.039 173, 467.383 173 C 469.530 173, 470.928 170.963, 470.986 167.750 C 471.002 166.876, 464.842 166.950, 460.500 167.877 M 366 180 L 366 192 370 192 L 374 192 374 181.582 C 374 175.852, 374.273 170.452, 374.607 169.582 C 375.106 168.280, 374.397 168, 370.607 168 L 366 168 366 180 M 395 180 L 395 192 399 192 L 403 192 403 180 L 403 168 399 168 L 395 168 395 180 M 444 180 L 444 192 448.500 192 L 453 192 453 180 L 453 168 448.500 168 L 444 168 444 180 M 473 180 L 473 192 477.500 192 L 482 192 482 180 L 482 168 477.500 168 L 473 168 473 180" stroke="none" fill="#efd64a" fill-rule="evenodd"/></svg>